<svg width="600" height="600" viewBox="0 0 600 600" xmlns="http://www.w3.org/2000/svg">


  <rect id="svg_1" fill="#212121" x="0" y="0" width="600" height="600"/>
  <rect id="svg_4" height="463" width="512" y="63.53125" x="27.5" fill="#64b5f6"/>
  <g id="svg_2" fill="#000000" transform="translate(0,600) scale(0.10000000149011612,-0.10000000149011612) ">
   <path id="svg_3" fill="#212121" d="m0,3000l0,-3000l3000,0l3000,0l0,3000l0,3000l-3000,0l-3000,0l0,-3000zm3993,4c543,-900 986,-1638 984,-1640c-2,-2 -566,-3 -1253,-2l-1250,3l206,320l206,320l468,3c273,1 466,6 464,11c-7,20 -813,1351 -818,1351c-3,0 -176,-282 -384,-627c-209,-346 -483,-798 -610,-1005l-231,-377l-378,-1c-208,0 -377,4 -375,8c9,22 1974,3272 1978,3272c3,0 450,-737 993,-1636z"/>
  </g>

</svg>