<svg width="600" height="600" viewBox="0 0 600 600" xmlns="http://www.w3.org/2000/svg" >
  <rect height="600" width="600" y="0" x="0" fill="#81c784"/>
  <g transform="translate(0,600) scale(0.10000000149011612,-0.10000000149011612) " fill="#000000">
   <path d="m0,3000l0,-3000l3000,0l3000,0l0,3000l0,3000l-3000,0l-3000,0l0,-3000zm3993,4c543,-900 986,-1638 984,-1640c-2,-2 -566,-3 -1253,-2l-1250,3l206,320l206,320l468,3c273,1 466,6 464,11c-7,20 -813,1351 -818,1351c-3,0 -176,-282 -384,-627c-209,-346 -483,-798 -610,-1005l-231,-377l-378,-1c-208,0 -377,4 -375,8c9,22 1974,3272 1978,3272c3,0 450,-737 993,-1636z" fill="#212121"/>
  </g>
</svg>