<svg version="1.0" xmlns="http://www.w3.org/2000/svg"
 width="599.000000pt" height="599.000000pt" viewBox="0 0 599.000000 599.000000">
<rect height="599.000000pt" width="599.000000pt" y="0" x="0" fill="white"/>
<g transform="translate(0.000000,599.000000) scale(0.100000,-0.100000)"
fill="#0078d4" stroke="none">
<path d="M0 2995 l0 -2995 2995 0 2995 0 0 2995 0 2995 -2995 0 -2995 0 0
-2995z m3310 2110 c465 -70 911 -303 1235 -648 611 -648 756 -1599 365 -2395
-521 -1062 -1791 -1500 -2848 -982 -640 314 -1069 900 -1179 1612 -23 154 -23
451 0 608 118 776 641 1422 1372 1695 168 63 384 110 585 129 85 8 365 -4 470
-19z"/>
<path d="M2873 5025 c-126 -35 -229 -101 -337 -216 -92 -97 -166 -208 -239
-354 -55 -112 -147 -342 -147 -370 0 -13 92 -15 845 -15 753 0 845 2 845 15 0
28 -92 258 -145 365 -146 292 -336 493 -526 560 -83 28 -223 36 -296 15z"/>
<path d="M2485 4976 c-474 -122 -875 -399 -1169 -810 -31 -43 -56 -82 -56 -87
0 -5 170 -9 398 -9 l397 0 18 62 c28 93 92 251 148 363 97 192 238 378 362
477 27 21 45 38 40 38 -4 -1 -66 -16 -138 -34z"/>
<path d="M3416 4962 c189 -157 352 -413 468 -734 25 -70 46 -135 46 -143 0
-13 49 -15 400 -15 220 0 400 3 400 6 0 14 -98 151 -170 236 -268 322 -651
564 -1045 661 -173 43 -164 44 -99 -11z"/>
<path d="M1156 3893 c-130 -261 -206 -589 -206 -894 0 -317 64 -601 203 -891
l60 -128 413 0 414 0 -9 23 c-18 47 -72 325 -92 470 -26 194 -37 640 -20 842
16 187 47 399 80 545 l28 120 -414 0 -413 0 -44 -87z"/>
<path d="M2117 3973 c-11 -17 -58 -249 -77 -370 -34 -227 -43 -363 -43 -618 0
-339 27 -582 100 -893 l27 -112 870 2 870 3 13 45 c8 25 27 110 43 190 101
508 102 1048 0 1550 -16 80 -33 159 -38 175 l-8 30 -877 3 c-481 1 -878 -1
-880 -5z"/>
<path d="M3997 3828 c64 -301 77 -442 78 -833 0 -307 -3 -370 -23 -515 -23
-168 -62 -373 -86 -455 l-14 -45 412 0 413 0 61 128 c72 151 110 258 145 407
109 460 61 932 -138 1353 l-54 112 -413 0 -414 0 33 -152z"/>
<path d="M1280 1881 c0 -18 150 -209 235 -299 253 -268 611 -479 960 -565 173
-43 164 -44 99 11 -189 157 -348 406 -465 726 l-48 131 -390 3 c-222 1 -391
-2 -391 -7z"/>
<path d="M2179 1813 c50 -136 69 -180 120 -280 145 -288 335 -488 528 -554 95
-33 240 -34 334 -1 94 32 204 109 292 202 144 153 248 337 358 633 l28 77
-844 0 -844 0 28 -77z"/>
<path d="M3925 1878 c-77 -220 -131 -346 -203 -471 -95 -165 -207 -303 -316
-389 -56 -45 -65 -45 119 2 456 116 887 421 1164 823 l32 47 -396 0 c-307 0
-397 -3 -400 -12z"/>
</g>
</svg>
