<svg width="599" height="599" viewBox="0 0 599 599" xmlns="http://www.w3.org/2000/svg" version="1.0">

  <rect id="svg_1" fill="#0078d4" x="0" y="0" width="599.000000pt" height="599.000000pt"/>

  <rect id="svg_13" height="464" width="470" y="71.03125" x="67" stroke-width="0" stroke="#64b5f6" fill="white"/>
  <g id="svg_2" fill="#0078d4" transform="translate(0,599) scale(0.10000000149011612,-0.10000000149011612) ">
   <path id="svg_3" d="m0,2995l0,-2995l2995,0l2995,0l0,2995l0,2995l-2995,0l-2995,0l0,-2995zm3310,2110c465,-70 911,-303 1235,-648c611,-648 756,-1599 365,-2395c-521,-1062 -1791,-1500 -2848,-982c-640,314 -1069,900 -1179,1612c-23,154 -23,451 0,608c118,776 641,1422 1372,1695c168,63 384,110 585,129c85,8 365,-4 470,-19z"/>
   <path id="svg_4" d="m2873,5025c-126,-35 -229,-101 -337,-216c-92,-97 -166,-208 -239,-354c-55,-112 -147,-342 -147,-370c0,-13 92,-15 845,-15c753,0 845,2 845,15c0,28 -92,258 -145,365c-146,292 -336,493 -526,560c-83,28 -223,36 -296,15z"/>
   <path id="svg_5" d="m2485,4976c-474,-122 -875,-399 -1169,-810c-31,-43 -56,-82 -56,-87c0,-5 170,-9 398,-9l397,0l18,62c28,93 92,251 148,363c97,192 238,378 362,477c27,21 45,38 40,38c-4,-1 -66,-16 -138,-34z"/>
   <path id="svg_6" d="m3416,4962c189,-157 352,-413 468,-734c25,-70 46,-135 46,-143c0,-13 49,-15 400,-15c220,0 400,3 400,6c0,14 -98,151 -170,236c-268,322 -651,564 -1045,661c-173,43 -164,44 -99,-11z"/>
   <path id="svg_7" d="m1156,3893c-130,-261 -206,-589 -206,-894c0,-317 64,-601 203,-891l60,-128l413,0l414,0l-9,23c-18,47 -72,325 -92,470c-26,194 -37,640 -20,842c16,187 47,399 80,545l28,120l-414,0l-413,0l-44,-87z"/>
   <path id="svg_8" d="m2117,3973c-11,-17 -58,-249 -77,-370c-34,-227 -43,-363 -43,-618c0,-339 27,-582 100,-893l27,-112l870,2l870,3l13,45c8,25 27,110 43,190c101,508 102,1048 0,1550c-16,80 -33,159 -38,175l-8,30l-877,3c-481,1 -878,-1 -880,-5z"/>
   <path id="svg_9" d="m3997,3828c64,-301 77,-442 78,-833c0,-307 -3,-370 -23,-515c-23,-168 -62,-373 -86,-455l-14,-45l412,0l413,0l61,128c72,151 110,258 145,407c109,460 61,932 -138,1353l-54,112l-413,0l-414,0l33,-152z"/>
   <path id="svg_10" d="m1280,1881c0,-18 150,-209 235,-299c253,-268 611,-479 960,-565c173,-43 164,-44 99,11c-189,157 -348,406 -465,726l-48,131l-390,3c-222,1 -391,-2 -391,-7z"/>
   <path id="svg_11" d="m2179,1813c50,-136 69,-180 120,-280c145,-288 335,-488 528,-554c95,-33 240,-34 334,-1c94,32 204,109 292,202c144,153 248,337 358,633l28,77l-844,0l-844,0l28,-77z"/>
   <path id="svg_12" d="m3925,1878c-77,-220 -131,-346 -203,-471c-95,-165 -207,-303 -316,-389c-56,-45 -65,-45 119,2c456,116 887,421 1164,823l32,47l-396,0c-307,0 -397,-3 -400,-12z"/>
  </g>

</svg>