<svg version="1.0" xmlns="http://www.w3.org/2000/svg"
 width="120.000000pt" height="120.000000pt" viewBox="0 0 120.000000 120.000000">
<rect fill="#fafafa" width="120.000000pt" height="120.000000pt" x="0" y="0"/>
<g transform="translate(0.000000,120.000000) scale(0.100000,-0.100000)"
fill="#434343" stroke="none">
<path d="M0 600 l0 -600 600 0 600 0 0 600 0 600 -600 0 -600 0 0 -600z m646
347 c14 -34 19 -79 22 -224 2 -104 0 -183 -5 -183 -5 0 -18 28 -30 63 -11 34
-39 112 -60 173 l-40 110 19 51 c28 76 65 79 94 10z m-226 -472 c0 -241 -1
-255 -19 -265 -29 -15 -61 -12 -68 6 -3 9 8 72 26 141 17 68 29 128 25 134 -3
6 -47 44 -97 86 -87 71 -107 91 -107 103 0 31 49 43 198 48 l42 2 0 -255z
m566 240 c25 -5 38 -30 27 -50 -5 -7 -52 -49 -105 -94 -54 -45 -98 -87 -98
-93 0 -6 14 -64 31 -129 18 -64 29 -125 26 -133 -8 -20 -46 -21 -72 -2 -19 13
-20 24 -17 266 l3 251 92 -6 c51 -3 102 -8 113 -10z m-396 -250 c23 -66 45
-126 48 -133 3 -10 -2 -11 -22 -6 -17 4 -35 1 -51 -10 -13 -9 -27 -16 -30 -16
-3 0 -5 68 -5 152 0 84 4 148 8 143 5 -6 28 -64 52 -130z"/>
</g>
</svg>
