<svg width="120" height="120" viewBox="0 0 120 120" xmlns="http://www.w3.org/2000/svg" version="1.0">



  <rect id="svg_1" y="0" x="0" height="120.000000pt" width="120.000000pt" fill="#434343"/>
    <rect id="svg_4" height="97.096814" width="91.12907" y="12.34373" x="14.758046" fill="#fafafa"/>

  <g id="svg_2" fill="#434343" transform="translate(0,120) scale(0.10000000149011612,-0.10000000149011612) ">
   <path id="svg_3" d="m0,600l0,-600l600,0l600,0l0,600l0,600l-600,0l-600,0l0,-600zm646,347c14,-34 19,-79 22,-224c2,-104 0,-183 -5,-183c-5,0 -18,28 -30,63c-11,34 -39,112 -60,173l-40,110l19,51c28,76 65,79 94,10zm-226,-472c0,-241 -1,-255 -19,-265c-29,-15 -61,-12 -68,6c-3,9 8,72 26,141c17,68 29,128 25,134c-3,6 -47,44 -97,86c-87,71 -107,91 -107,103c0,31 49,43 198,48l42,2l0,-255zm566,240c25,-5 38,-30 27,-50c-5,-7 -52,-49 -105,-94c-54,-45 -98,-87 -98,-93c0,-6 14,-64 31,-129c18,-64 29,-125 26,-133c-8,-20 -46,-21 -72,-2c-19,13 -20,24 -17,266l3,251l92,-6c51,-3 102,-8 113,-10zm-396,-250c23,-66 45,-126 48,-133c3,-10 -2,-11 -22,-6c-17,4 -35,1 -51,-10c-13,-9 -27,-16 -30,-16c-3,0 -5,68 -5,152c0,84 4,148 8,143c5,-6 28,-64 52,-130z"/>
  </g>

</svg>