
<svg version="1.0" xmlns="http://www.w3.org/2000/svg"
 width="50.000000pt" height="50.000000pt" viewBox="0 0 50.000000 50.000000"
>
<rect width="50.000000pt" height="50.000000pt" y="0" x="0" fill="#2196f3"/>
<g transform="translate(0.000000,50.000000) scale(0.100000,-0.100000)"
fill="#fafcfe" stroke="none">
<path d="M228 332 l-58 -87 55 -3 c30 -2 55 -5 55 -8 0 -3 -23 -38 -50 -79
-40 -60 -47 -75 -33 -75 11 0 39 33 75 88 l58 87 -55 3 c-30 2 -55 5 -55 8 0
3 23 38 50 79 40 60 47 75 33 75 -11 0 -39 -33 -75 -88z"/>
</g>
</svg>
