<?xml version="1.0" standalone="yes"?>
<svg xmlns="http://www.w3.org/2000/svg" width="72" height="72" viewBox="0 0 72 72">
<path style="fill:#feffff; stroke:none;" d="M0 0L0 72L72 72L72 0L0 0z"/>
<path style="fill:#a1d5d7; stroke:none;" d="M32 20L32 21L35 21L32 20z"/>
<path style="fill:#60c3c4; stroke:none;" d="M35.6667 20.3333L36.3333 20.6667L35.6667 20.3333z"/>
<path style="fill:#a1d5d7; stroke:none;" d="M37 20L37 21L40 21L37 20M29 21L30 22L29 21z"/>
<path style="fill:#60c3c4; stroke:none;" d="M30 21L31 22L30 21z"/>
<path style="fill:#0eb7b7; stroke:none;" d="M24 28C35.9519 23.6783 52.1168 46.5886 61 28C48.1338 33.4149 35.0194 9.92749 24 28z"/>
<path style="fill:#60c3c4; stroke:none;" d="M41 21L42 22L41 21z"/>
<path style="fill:#a1d5d7; stroke:none;" d="M42 21L43 22L42 21z"/>
<path style="fill:#60c3c4; stroke:none;" d="M28 22L29 23L28 22z"/>
<path style="fill:#2eb9bb; stroke:none;" d="M29 25C40.578 27.3361 44.6795 37.6208 58 32C50.5447 29.8763 36.1022 14.9476 29 25z"/>
<path style="fill:#60c3c4; stroke:none;" d="M43 22L44 23L43 22z"/>
<path style="fill:#a1d5d7; stroke:none;" d="M44 22L45 23L44 22M26 23L27 24L26 23z"/>
<path style="fill:#0eb7b7; stroke:none;" d="M31 23L31 24C39.7717 28.5262 43.5984 32.9989 54 33C46.1786 26.6088 41.2634 23.0011 31 23z"/>
<path style="fill:#a1d5d7; stroke:none;" d="M45 23L46 24L45 23z"/>
<path style="fill:#2eb9bb; stroke:none;" d="M27 24L28 25L27 24z"/>
<path style="fill:#60c3c4; stroke:none;" d="M28 24L29 25L28 24z"/>
<path style="fill:#a1d5d7; stroke:none;" d="M46 24L47 25L46 24z"/>
<path style="fill:#60c3c4; stroke:none;" d="M25 25L26 26L25 25z"/>
<path style="fill:#a1d5d7; stroke:none;" d="M47 25L48 26L47 25M24 26L25 27L24 26z"/>
<path style="fill:#60c3c4; stroke:none;" d="M27 26L28 27L27 26z"/>
<path style="fill:#a1d5d7; stroke:none;" d="M28 26L28 27L32 27L28 26z"/>
<path style="fill:#60c3c4; stroke:none;" d="M32 26L33 27L32 26z"/>
<path style="fill:#a1d5d7; stroke:none;" d="M48 26L49 27L48 26z"/>
<path style="fill:#2eb9bb; stroke:none;" d="M25 27L26 28L25 27z"/>
<path style="fill:#a1d5d7; stroke:none;" d="M26 27L27 28L26 27M33 27L34 28L33 27z"/>
<path style="fill:#2eb9bb; stroke:none;" d="M34 27L35 28L34 27z"/>
<path style="fill:#a1d5d7; stroke:none;" d="M49 27L50 28L49 27z"/>
<path style="fill:#60c3c4; stroke:none;" d="M61 27L62 28L61 27z"/>
<path style="fill:#a1d5d7; stroke:none;" d="M23.3333 28.6667L23.6667 29.3333L23.3333 28.6667z"/>
<path style="fill:#60c3c4; stroke:none;" d="M24 28L25 29L24 28M35 28L36 29L35 28M50 28L51 29L50 28z"/>
<path style="fill:#a1d5d7; stroke:none;" d="M59 28L60 29L59 28M61 28L62 29L61 28z"/>
<path style="fill:#60c3c4; stroke:none;" d="M36 29L37 30L36 29z"/>
<path style="fill:#a1d5d7; stroke:none;" d="M52.6667 29.3333L53.3333 29.6667L52.6667 29.3333M57 29L58 30L57 29z"/>
<path style="fill:#60c3c4; stroke:none;" d="M58 29L59 30L58 29M37 30L38 31L37 30z"/>
<path style="fill:#a1d5d7; stroke:none;" d="M60 30L61 31L60 30z"/>
<path style="fill:#60c3c4; stroke:none;" d="M38 31L39 32L38 31M59 31L60 32L59 31z"/>
<path style="fill:#a1d5d7; stroke:none;" d="M39 32L40 33L39 32z"/>
<path style="fill:#2eb9bb; stroke:none;" d="M58 32L59 33L58 32z"/>
<path style="fill:#a1d5d7; stroke:none;" d="M40 33L41 34L40 33z"/>
<path style="fill:#60c3c4; stroke:none;" d="M57 33L58 34L57 33z"/>
<path style="fill:#a1d5d7; stroke:none;" d="M42 34L43 35L42 34z"/>
<path style="fill:#60c3c4; stroke:none;" d="M55 34L56 35L55 34z"/>
<path style="fill:#a1d5d7; stroke:none;" d="M56 34L57 35L56 34M44.6667 35.3333L45.3333 35.6667L44.6667 35.3333z"/>
<path style="fill:#60c3c4; stroke:none;" d="M46 35L47 36L46 35z"/>
<path style="fill:#2eb9bb; stroke:none;" d="M47.6667 35.3333L48.3333 35.6667L47.6667 35.3333M50 35L51 36L50 35z"/>
<path style="fill:#60c3c4; stroke:none;" d="M51.6667 35.3333L52.3333 35.6667L51.6667 35.3333z"/>
<path style="fill:#a1d5d7; stroke:none;" d="M53.6667 35.3333L54.3333 35.6667L53.6667 35.3333M18 36L18 37L27 37L18 36M16 37L17 38L16 37z"/>
<path style="fill:#60c3c4; stroke:none;" d="M17 37L18 38L17 37z"/>
<path style="fill:#0eb7b7; stroke:none;" d="M11 44C23.6892 39.4201 37.9166 62.9674 48 44C35.7356 49.1873 20.9315 25.8508 11 44z"/>
<path style="fill:#2eb9bb; stroke:none;" d="M27 37L28 38L27 37z"/>
<path style="fill:#a1d5d7; stroke:none;" d="M28.6667 37.3333L29.3333 37.6667L28.6667 37.3333M14 38L15 39L14 38z"/>
<path style="fill:#2eb9bb; stroke:none;" d="M15 38L16 39L15 38M13 41L13 42L33 50L33 49L20 39C26.0196 39 40.0763 45.6947 39 50L44 47C31.3933 46.7454 27.0866 33.6162 13 41z"/>
<path style="fill:#60c3c4; stroke:none;" d="M30 38L31 39L30 38z"/>
<path style="fill:#a1d5d7; stroke:none;" d="M13 39L14 40L13 39M32 39L33 40L32 39M12 40L13 41L12 40M33 40L34 41L33 40M11 41L12 42L11 41M34 41L35 42L34 41z"/>
<path style="fill:#2eb9bb; stroke:none;" d="M11 42L12 43L11 42z"/>
<path style="fill:#60c3c4; stroke:none;" d="M14 42L15 43L14 42z"/>
<path style="fill:#a1d5d7; stroke:none;" d="M15 42L15 43L18 43L15 42z"/>
<path style="fill:#60c3c4; stroke:none;" d="M18 42L19 43L18 42z"/>
<path style="fill:#2eb9bb; stroke:none;" d="M19 42L20 43L19 42z"/>
<path style="fill:#a1d5d7; stroke:none;" d="M35 42L36 43L35 42M48 42L47 44L49 44L48 42M10 43L9 45L9 46C11.1579 45.0224 11.5007 44.8117 10 43z"/>
<path style="fill:#60c3c4; stroke:none;" d="M12 43L13 44L12 43z"/>
<path style="fill:#a1d5d7; stroke:none;" d="M20 43L21 44L20 43M36 43L37 44L36 43z"/>
<path style="fill:#2eb9bb; stroke:none;" d="M10 44L11 45L10 44z"/>
<path style="fill:#a1d5d7; stroke:none;" d="M21 44L22 45L21 44M37 44L38 45L37 44M46 44L47 45L46 44z"/>
<path style="fill:#2eb9bb; stroke:none;" d="M23 45L24 46L23 45M38 45L39 46L38 45z"/>
<path style="fill:#a1d5d7; stroke:none;" d="M39 45L40 46L39 45M44 45L45 46L44 45z"/>
<path style="fill:#60c3c4; stroke:none;" d="M45 45L46 46L45 45M47 45L48 46L47 45z"/>
<path style="fill:#2eb9bb; stroke:none;" d="M25 47L26 48L25 47z"/>
<path style="fill:#60c3c4; stroke:none;" d="M44 47L45 48L44 47z"/>
<path style="fill:#a1d5d7; stroke:none;" d="M46 47L47 48L46 47z"/>
<path style="fill:#60c3c4; stroke:none;" d="M26 48L27 49L26 48z"/>
<path style="fill:#a1d5d7; stroke:none;" d="M45 48L46 49L45 48M27 49L28 50L27 49M44 49L45 50L44 49M28 50L29 51L28 50z"/>
<path style="fill:#60c3c4; stroke:none;" d="M29 50L30 51L29 50M42 50L43 51L42 50z"/>
<path style="fill:#a1d5d7; stroke:none;" d="M31 51L32 52L31 51z"/>
<path style="fill:#60c3c4; stroke:none;" d="M32 51L33 52L32 51z"/>
<path style="fill:#2eb9bb; stroke:none;" d="M33 51L34 52L33 51M38 51L39 52L38 51z"/>
<path style="fill:#60c3c4; stroke:none;" d="M39 51L40 52L39 51z"/>
<path style="fill:#a1d5d7; stroke:none;" d="M40 51L41 52L40 51z"/>
</svg>
