
<svg xmlns="http://www.w3.org/2000/svg" width="49.000000pt" height="49.000000pt" viewBox="0 0 49.000000 49.000000">
<rect width="49.000000pt" height="49.000000pt" y="0" x="0" fill="#64b5f6"/>
<g transform="translate(0.000000,49.000000) scale(0.100000,-0.100000)"
fill="#000000" stroke="none">
<path d="M0 250 l0 -250 250 0 250 0 0 250 0 250 -250 0 -250 0 0 -250z m302
90 c55 -92 64 -130 40 -183 -11 -23 -29 -51 -42 -62 l-22 -20 20 39 c14 26 19
49 15 65 -7 33 -52 111 -63 111 -11 0 -56 -78 -63 -111 -4 -16 1 -39 15 -65
l20 -39 -22 20 c-52 47 -66 123 -35 187 28 55 79 128 89 125 5 -2 26 -32 48
-67z" fill="#283747"/>
</g>
</svg>
