<svg width="49.00000000000001" height="49.00000000000001" viewBox="0 0 49.00000000000001 49.00000000000001" xmlns="http://www.w3.org/2000/svg">
  <rect fill="#283747" height="49.00000000000001" width="49.00000000000001" y="0" x="0"/>
  <rect  height="38.437488" width="34.999989" y="6.145514" x="7.70313" fill="#81c784"/>
  <g fill="#000000" transform="translate(0,49) scale(0.10000000149011612,-0.10000000149011612) ">
   <path fill="#283747" d="m0,250l0,-250l250,0l250,0l0,250l0,250l-250,0l-250,0l0,-250zm302,90c55,-92 64,-130 40,-183c-11,-23 -29,-51 -42,-62l-22,-20l20,39c14,26 19,49 15,65c-7,33 -52,111 -63,111c-11,0 -56,-78 -63,-111c-4,-16 1,-39 15,-65l20,-39l-22,20c-52,47 -66,123 -35,187c28,55 79,128 89,125c5,-2 26,-32 48,-67z"/>
  </g>
</svg>