<svg version="1.1" xmlns="http://www.w3.org/2000/svg" style="display:none;"><symbol id="lara-dark-blue" viewBox="0 0 400 400"><path fill="#1d2126" d="M-1-1h402v402H-1z"/><text font-style="italic" font-weight="bold" font-family="Arvo, sans-serif" font-size="222" y="277" x="124" stroke-opacity="null" stroke-width="0" stroke="null" fill="#89bdfa">L</text></symbol><symbol id="lara-dark-indigo" viewBox="0 0 400 400"><path fill="#1d2126" d="M-1-1h402v402H-1z"/><text font-style="italic" font-weight="bold" font-family="Arvo, sans-serif" font-size="222" y="277" x="124" stroke-opacity="null" stroke-width="0" stroke="null" fill="#a7b5f6">L</text></symbol><symbol id="lara-dark-purple" viewBox="0 0 400 400"><path fill="#1d2126" d="M-1-1h402v402H-1z"/><text font-style="italic" font-weight="bold" font-family="Arvo, sans-serif" font-size="222" y="277" x="124" stroke-opacity="null" stroke-width="0" stroke="null" fill="#c1b7f8">L</text></symbol><symbol id="lara-dark-teal" viewBox="0 0 400 400"><path fill="#1d2126" d="M-1-1h402v402H-1z"/><text font-style="italic" font-weight="bold" font-family="Arvo, sans-serif" font-size="222" y="277" x="124" stroke-opacity="null" stroke-width="0" stroke="null" fill="#86e7d4">L</text></symbol><symbol id="lara-light-blue" viewBox="0 0 400 400"><path fill="#4c83ee" d="M-1-1h402v402H-1z"/><text font-style="italic" font-weight="bold" font-family="Arvo, sans-serif" font-size="222" y="277" x="124" stroke-opacity="null" stroke-width="0" stroke="null" fill="#fff">L</text></symbol><symbol id="lara-light-indigo" viewBox="0 0 400 400"><path fill="#636ae9" d="M-1-1h402v402H-1z"/><text font-style="italic" font-weight="bold" font-family="Arvo, sans-serif" font-size="222" y="277" x="124" stroke-opacity="null" stroke-width="0" stroke="null" fill="#fff">L</text></symbol><symbol id="lara-light-purple" viewBox="0 0 400 400"><path fill="#8362ed" d="M-1-1h402v402H-1z"/><text font-style="italic" font-weight="bold" font-family="Arvo, sans-serif" font-size="222" y="277" x="124" stroke-opacity="null" stroke-width="0" stroke="null" fill="#fff">L</text></symbol><symbol id="lara-light-teal" viewBox="0 0 400 400"><path fill="#55b5a6" d="M-1-1h402v402H-1z"/><text font-style="italic" font-weight="bold" font-family="Arvo, sans-serif" font-size="222" y="277" x="124" stroke-opacity="null" stroke-width="0" stroke="null" fill="#fff">L</text></symbol><symbol id="luna-amber" viewBox="0 0 400 400"><path fill="#212121" d="M-1-1h402v402H-1z"/><ellipse ry="145" rx="145" cy="200" cx="200" stroke-opacity="null" stroke-width="null" stroke="null" fill="#d19609"/><text font-style="italic" font-weight="bold" font-family="Arvo, sans-serif" font-size="222" y="277" x="124" stroke-opacity="null" stroke-width="0" stroke="null" fill="#333c40">L</text></symbol><symbol id="luna-blue" viewBox="0 0 400 400"><path fill="#212121" d="M-1-1h402v402H-1z"/><ellipse ry="145" rx="145" cy="200" cx="200" stroke-opacity="null" stroke-width="null" stroke="null" fill="#1e6caf"/><text font-style="italic" font-weight="bold" font-family="Arvo, sans-serif" font-size="222" y="277" x="124" stroke-opacity="null" stroke-width="0" stroke="null" fill="#fff">L</text></symbol><symbol id="luna-green" viewBox="0 0 400 400"><path fill="#212121" d="M-1-1h402v402H-1z"/><ellipse ry="145" rx="145" cy="200" cx="200" stroke-opacity="null" stroke-width="null" stroke="null" fill="#308d33"/><text font-style="italic" font-weight="bold" font-family="Arvo, sans-serif" font-size="222" y="277" x="124" stroke-opacity="null" stroke-width="0" stroke="null" fill="#fff">L</text></symbol><symbol id="luna-pink" viewBox="0 0 400 400"><path fill="#212121" d="M-1-1h402v402H-1z"/><ellipse ry="145" rx="145" cy="200" cx="200" stroke-opacity="null" stroke-width="null" stroke="null" fill="#a92752"/><text font-style="italic" font-weight="bold" font-family="Arvo, sans-serif" font-size="222" y="277" x="124" stroke-opacity="null" stroke-width="0" stroke="null" fill="#fff">L</text></symbol><symbol id="nova" viewBox="0 0 120 120"><path fill="#676767" d="M0 0h160v160H0z"/><path d="M0 60v60h120V0H0v60zm64.6-34.7c1.4 3.4 1.9 7.9 2.2 22.4.2 10.4 0 18.3-.5 18.3s-1.8-2.8-3-6.3c-1.1-3.4-3.9-11.2-6-17.3l-4-11 1.9-5.1c2.8-7.6 6.5-7.9 9.4-1zM42 72.5c0 24.1-.1 25.5-1.9 26.5-2.9 1.5-6.1 1.2-6.8-.6-.3-.9.8-7.2 2.6-14.1 1.7-6.8 2.9-12.8 2.5-13.4-.3-.6-4.7-4.4-9.7-8.6C20 55.2 18 53.2 18 52c0-3.1 4.9-4.3 19.8-4.8L42 47v25.5zm56.6-24c2.5.5 3.8 3 2.7 5-.5.7-5.2 4.9-10.5 9.4-5.4 4.5-9.8 8.7-9.8 9.3 0 .6 1.4 6.4 3.1 12.9 1.8 6.4 2.9 12.5 2.6 13.3-.8 2-4.6 2.1-7.2.2-1.9-1.3-2-2.4-1.7-26.6l.3-25.1 9.2.6c5.1.3 10.2.8 11.3 1zM59 73.5c2.3 6.6 4.5 12.6 4.8 13.3.3 1-.2 1.1-2.2.6-1.7-.4-3.5-.1-5.1 1-1.3.9-2.7 1.6-3 1.6-.3 0-.5-6.8-.5-15.2 0-8.4.4-14.8.8-14.3.5.6 2.8 6.4 5.2 13z" fill="#d6d6d6"/></symbol><symbol id="nova-accent" viewBox="0 0 120 120"><path fill="#073258" d="M0 0h160v160H0z"/><path d="M0 60v60h120V0H0v60zm64.6-34.7c1.4 3.4 1.9 7.9 2.2 22.4.2 10.4 0 18.3-.5 18.3s-1.8-2.8-3-6.3c-1.1-3.4-3.9-11.2-6-17.3l-4-11 1.9-5.1c2.8-7.6 6.5-7.9 9.4-1zM42 72.5c0 24.1-.1 25.5-1.9 26.5-2.9 1.5-6.1 1.2-6.8-.6-.3-.9.8-7.2 2.6-14.1 1.7-6.8 2.9-12.8 2.5-13.4-.3-.6-4.7-4.4-9.7-8.6C20 55.2 18 53.2 18 52c0-3.1 4.9-4.3 19.8-4.8L42 47v25.5zm56.6-24c2.5.5 3.8 3 2.7 5-.5.7-5.2 4.9-10.5 9.4-5.4 4.5-9.8 8.7-9.8 9.3 0 .6 1.4 6.4 3.1 12.9 1.8 6.4 2.9 12.5 2.6 13.3-.8 2-4.6 2.1-7.2.2-1.9-1.3-2-2.4-1.7-26.6l.3-25.1 9.2.6c5.1.3 10.2.8 11.3 1zM59 73.5c2.3 6.6 4.5 12.6 4.8 13.3.3 1-.2 1.1-2.2.6-1.7-.4-3.5-.1-5.1 1-1.3.9-2.7 1.6-3 1.6-.3 0-.5-6.8-.5-15.2 0-8.4.4-14.8.8-14.3.5.6 2.8 6.4 5.2 13z" fill="#2585d6"/></symbol><symbol id="nova-alt" viewBox="0 0 120 120"><path fill="#fafafa" d="M0 0h160v160H0z"/><path d="M0 60v60h120V0H0v60zm64.6-34.7c1.4 3.4 1.9 7.9 2.2 22.4.2 10.4 0 18.3-.5 18.3s-1.8-2.8-3-6.3c-1.1-3.4-3.9-11.2-6-17.3l-4-11 1.9-5.1c2.8-7.6 6.5-7.9 9.4-1zM42 72.5c0 24.1-.1 25.5-1.9 26.5-2.9 1.5-6.1 1.2-6.8-.6-.3-.9.8-7.2 2.6-14.1 1.7-6.8 2.9-12.8 2.5-13.4-.3-.6-4.7-4.4-9.7-8.6C20 55.2 18 53.2 18 52c0-3.1 4.9-4.3 19.8-4.8L42 47v25.5zm56.6-24c2.5.5 3.8 3 2.7 5-.5.7-5.2 4.9-10.5 9.4-5.4 4.5-9.8 8.7-9.8 9.3 0 .6 1.4 6.4 3.1 12.9 1.8 6.4 2.9 12.5 2.6 13.3-.8 2-4.6 2.1-7.2.2-1.9-1.3-2-2.4-1.7-26.6l.3-25.1 9.2.6c5.1.3 10.2.8 11.3 1zM59 73.5c2.3 6.6 4.5 12.6 4.8 13.3.3 1-.2 1.1-2.2.6-1.7-.4-3.5-.1-5.1 1-1.3.9-2.7 1.6-3 1.6-.3 0-.5-6.8-.5-15.2 0-8.4.4-14.8.8-14.3.5.6 2.8 6.4 5.2 13z" fill="#434343"/></symbol><symbol id="rhea" viewBox="0 0 400 400"><path fill="#afd3c9" d="M0 0h400v400H0z"/><ellipse ry="155" rx="155" cy="200" cx="200" fill="#fdfdfd"/><text font-weight="bold" font-family="Arvo, sans-serif" font-size="222" y="279.667" x="117.073" stroke-width="0" stroke="#000" fill="#7b95a3">R</text></symbol><symbol id="saga-blue" viewBox="0 0 50 50"><path fill="#2196f3" d="M0 0h66.667v66.667H0z"/><path d="M22.8 16.8L17 25.5l5.5.3c3 .2 5.5.5 5.5.8 0 .3-2.3 3.8-5 7.9-4 6-4.7 7.5-3.3 7.5 1.1 0 3.9-3.3 7.5-8.8l5.8-8.7-5.5-.3c-3-.2-5.5-.5-5.5-.8 0-.3 2.3-3.8 5-7.9 4-6 4.7-7.5 3.3-7.5-1.1 0-3.9 3.3-7.5 8.8z" fill="#fafcfe"/></symbol><symbol id="saga-green" viewBox="0 0 50 50"><path fill="#4caf50" d="M0 0h66.667v66.667H0z"/><path d="M22.8 16.8L17 25.5l5.5.3c3 .2 5.5.5 5.5.8 0 .3-2.3 3.8-5 7.9-4 6-4.7 7.5-3.3 7.5 1.1 0 3.9-3.3 7.5-8.8l5.8-8.7-5.5-.3c-3-.2-5.5-.5-5.5-.8 0-.3 2.3-3.8 5-7.9 4-6 4.7-7.5 3.3-7.5-1.1 0-3.9 3.3-7.5 8.8z" fill="#fefefe"/></symbol><symbol id="saga-orange" viewBox="0 0 50 50"><path fill="#ffc107" d="M0 0h66.667v66.667H0z"/><path d="M22.8 16.8L17 25.5l5.5.3c3 .2 5.5.5 5.5.8 0 .3-2.3 3.8-5 7.9-4 6-4.7 7.5-3.3 7.5 1.1 0 3.9-3.3 7.5-8.8l5.8-8.7-5.5-.3c-3-.2-5.5-.5-5.5-.8 0-.3 2.3-3.8 5-7.9 4-6 4.7-7.5 3.3-7.5-1.1 0-3.9 3.3-7.5 8.8z" fill="#00002a"/></symbol><symbol id="saga-purple" viewBox="0 0 50 50"><path fill="#9c27b0" d="M0 0h66.667v66.667H0z"/><path d="M22.8 16.8L17 25.5l5.5.3c3 .2 5.5.5 5.5.8 0 .3-2.3 3.8-5 7.9-4 6-4.7 7.5-3.3 7.5 1.1 0 3.9-3.3 7.5-8.8l5.8-8.7-5.5-.3c-3-.2-5.5-.5-5.5-.8 0-.3 2.3-3.8 5-7.9 4-6 4.7-7.5 3.3-7.5-1.1 0-3.9 3.3-7.5 8.8z" fill="#fefdfe"/></symbol><symbol id="vela-blue" viewBox="0 0 49 49"><path fill="#64b5f6" d="M0 0h65.333v65.333H0z"/><path d="M0 24v25h50V-1H0v25zm30.2-9c5.5 9.2 6.4 13 4 18.3-1.1 2.3-2.9 5.1-4.2 6.2l-2.2 2 2-3.9c1.4-2.6 1.9-4.9 1.5-6.5C30.6 27.8 26.1 20 25 20c-1.1 0-5.6 7.8-6.3 11.1-.4 1.6.1 3.9 1.5 6.5l2 3.9-2.2-2c-5.2-4.7-6.6-12.3-3.5-18.7 2.8-5.5 7.9-12.8 8.9-12.5.5.2 2.6 3.2 4.8 6.7z" fill="#283747"/></symbol><symbol id="vela-green" viewBox="0 0 49 49"><path fill="#81c784" d="M0 0h65.333v65.333H0z"/><path d="M0 24v25h50V-1H0v25zm30.2-9c5.5 9.2 6.4 13 4 18.3-1.1 2.3-2.9 5.1-4.2 6.2l-2.2 2 2-3.9c1.4-2.6 1.9-4.9 1.5-6.5C30.6 27.8 26.1 20 25 20c-1.1 0-5.6 7.8-6.3 11.1-.4 1.6.1 3.9 1.5 6.5l2 3.9-2.2-2c-5.2-4.7-6.6-12.3-3.5-18.7 2.8-5.5 7.9-12.8 8.9-12.5.5.2 2.6 3.2 4.8 6.7z" fill="#283747"/></symbol><symbol id="vela-orange" viewBox="0 0 49 49"><path fill="#ffd54f" d="M0 0h65.333v65.333H0z"/><path d="M0 24v25h50V-1H0v25zm30.2-9c5.5 9.2 6.4 13 4 18.3-1.1 2.3-2.9 5.1-4.2 6.2l-2.2 2 2-3.9c1.4-2.6 1.9-4.9 1.5-6.5C30.6 27.8 26.1 20 25 20c-1.1 0-5.6 7.8-6.3 11.1-.4 1.6.1 3.9 1.5 6.5l2 3.9-2.2-2c-5.2-4.7-6.6-12.3-3.5-18.7 2.8-5.5 7.9-12.8 8.9-12.5.5.2 2.6 3.2 4.8 6.7z" fill="#283747"/></symbol><symbol id="vela-purple" viewBox="0 0 49 49"><path fill="#ba68c8" d="M0 0h65.333v65.333H0z"/><path d="M0 24v25h50V-1H0v25zm30.2-9c5.5 9.2 6.4 13 4 18.3-1.1 2.3-2.9 5.1-4.2 6.2l-2.2 2 2-3.9c1.4-2.6 1.9-4.9 1.5-6.5C30.6 27.8 26.1 20 25 20c-1.1 0-5.6 7.8-6.3 11.1-.4 1.6.1 3.9 1.5 6.5l2 3.9-2.2-2c-5.2-4.7-6.6-12.3-3.5-18.7 2.8-5.5 7.9-12.8 8.9-12.5.5.2 2.6 3.2 4.8 6.7z" fill="#283747"/></symbol><symbol id="fluent-light" viewBox="0 0 599 599"><path fill="#fff" d="M0 0h798.667v798.667H0z"/><g fill="#0078d4"><path d="M0 299.5V599h599V0H0v299.5zm331-211c46.5 7 91.1 30.3 123.5 64.8 61.1 64.8 75.6 159.9 36.5 239.5-52.1 106.2-179.1 150-284.8 98.2-64-31.4-106.9-90-117.9-161.2-2.3-15.4-2.3-45.1 0-60.8 11.8-77.6 64.1-142.2 137.2-169.5 16.8-6.3 38.4-11 58.5-12.9 8.5-.8 36.5.4 47 1.9z"/><path d="M287.3 96.5c-12.6 3.5-22.9 10.1-33.7 21.6-9.2 9.7-16.6 20.8-23.9 35.4-5.5 11.2-14.7 34.2-14.7 37 0 1.3 9.2 1.5 84.5 1.5s84.5-.2 84.5-1.5c0-2.8-9.2-25.8-14.5-36.5-14.6-29.2-33.6-49.3-52.6-56-8.3-2.8-22.3-3.6-29.6-1.5z"/><path d="M248.5 101.4c-47.4 12.2-87.5 39.9-116.9 81-3.1 4.3-5.6 8.2-5.6 8.7s17 .9 39.8.9h39.7l1.8-6.2c2.8-9.3 9.2-25.1 14.8-36.3 9.7-19.2 23.8-37.8 36.2-47.7 2.7-2.1 4.5-3.8 4-3.8-.4.1-6.6 1.6-13.8 3.4zM341.6 102.8c18.9 15.7 35.2 41.3 46.8 73.4 2.5 7 4.6 13.5 4.6 14.3 0 1.3 4.9 1.5 40 1.5 22 0 40-.3 40-.6 0-1.4-9.8-15.1-17-23.6-26.8-32.2-65.1-56.4-104.5-66.1-17.3-4.3-16.4-4.4-9.9 1.1zM115.6 209.7c-13 26.1-20.6 58.9-20.6 89.4 0 31.7 6.4 60.1 20.3 89.1l6 12.8H204l-.9-2.3c-1.8-4.7-7.2-32.5-9.2-47-2.6-19.4-3.7-64-2-84.2 1.6-18.7 4.7-39.9 8-54.5l2.8-12H120l-4.4 8.7z"/><path d="M211.7 201.7c-1.1 1.7-5.8 24.9-7.7 37-3.4 22.7-4.3 36.3-4.3 61.8 0 33.9 2.7 58.2 10 89.3l2.7 11.2 87-.2 87-.3 1.3-4.5c.8-2.5 2.7-11 4.3-19 10.1-50.8 10.2-104.8 0-155-1.6-8-3.3-15.9-3.8-17.5l-.8-3-87.7-.3c-48.1-.1-87.8.1-88 .5z"/><path d="M399.7 216.2c6.4 30.1 7.7 44.2 7.8 83.3 0 30.7-.3 37-2.3 51.5-2.3 16.8-6.2 37.3-8.6 45.5l-1.4 4.5h82.5l6.1-12.8c7.2-15.1 11-25.8 14.5-40.7 10.9-46 6.1-93.2-13.8-135.3l-5.4-11.2H396.4l3.3 15.2zM128 410.9c0 1.8 15 20.9 23.5 29.9 25.3 26.8 61.1 47.9 96 56.5 17.3 4.3 16.4 4.4 9.9-1.1-18.9-15.7-34.8-40.6-46.5-72.6l-4.8-13.1-39-.3c-22.2-.1-39.1.2-39.1.7z"/><path d="M217.9 417.7c5 13.6 6.9 18 12 28 14.5 28.8 33.5 48.8 52.8 55.4 9.5 3.3 24 3.4 33.4.1 9.4-3.2 20.4-10.9 29.2-20.2 14.4-15.3 24.8-33.7 35.8-63.3l2.8-7.7H215.1l2.8 7.7z"/><path d="M392.5 411.2c-7.7 22-13.1 34.6-20.3 47.1-9.5 16.5-20.7 30.3-31.6 38.9-5.6 4.5-6.5 4.5 11.9-.2 45.6-11.6 88.7-42.1 116.4-82.3l3.2-4.7h-39.6c-30.7 0-39.7.3-40 1.2z"/></g></symbol><symbol id="tailwind-light" viewBox="0 0 72 72"><path d="M0 0v72h72V0H0z" fill="#feffff"/><path d="M32 20v1h3l-3-1z" fill="#a1d5d7"/><path d="M35.667 20.333l.666.334-.666-.334z" fill="#60c3c4"/><path d="M37 20v1h3l-3-1m-8 1l1 1-1-1z" fill="#a1d5d7"/><path d="M30 21l1 1-1-1z" fill="#60c3c4"/><path d="M24 28c11.952-4.322 28.117 18.589 37 0-12.866 5.415-25.98-18.073-37 0z" fill="#0eb7b7"/><path d="M41 21l1 1-1-1z" fill="#60c3c4"/><path d="M42 21l1 1-1-1z" fill="#a1d5d7"/><path d="M28 22l1 1-1-1z" fill="#60c3c4"/><path d="M29 25c11.578 2.336 15.68 12.62 29 7-7.455-2.124-21.898-17.052-29-7z" fill="#2eb9bb"/><path d="M43 22l1 1-1-1z" fill="#60c3c4"/><path d="M44 22l1 1-1-1m-18 1l1 1-1-1z" fill="#a1d5d7"/><path d="M31 23v1c8.772 4.526 12.598 8.999 23 9-7.821-6.391-12.737-9.999-23-10z" fill="#0eb7b7"/><path d="M45 23l1 1-1-1z" fill="#a1d5d7"/><path d="M27 24l1 1-1-1z" fill="#2eb9bb"/><path d="M28 24l1 1-1-1z" fill="#60c3c4"/><path d="M46 24l1 1-1-1z" fill="#a1d5d7"/><path d="M25 25l1 1-1-1z" fill="#60c3c4"/><path d="M47 25l1 1-1-1m-23 1l1 1-1-1z" fill="#a1d5d7"/><path d="M27 26l1 1-1-1z" fill="#60c3c4"/><path d="M28 26v1h4l-4-1z" fill="#a1d5d7"/><path d="M32 26l1 1-1-1z" fill="#60c3c4"/><path d="M48 26l1 1-1-1z" fill="#a1d5d7"/><path d="M25 27l1 1-1-1z" fill="#2eb9bb"/><path d="M26 27l1 1-1-1m7 0l1 1-1-1z" fill="#a1d5d7"/><path d="M34 27l1 1-1-1z" fill="#2eb9bb"/><path d="M49 27l1 1-1-1z" fill="#a1d5d7"/><path d="M61 27l1 1-1-1z" fill="#60c3c4"/><path d="M23.333 28.667l.334.666-.334-.666z" fill="#a1d5d7"/><path d="M24 28l1 1-1-1m11 0l1 1-1-1m15 0l1 1-1-1z" fill="#60c3c4"/><path d="M59 28l1 1-1-1m2 0l1 1-1-1z" fill="#a1d5d7"/><path d="M36 29l1 1-1-1z" fill="#60c3c4"/><path d="M52.667 29.333l.666.334-.666-.334M57 29l1 1-1-1z" fill="#a1d5d7"/><path d="M58 29l1 1-1-1m-21 1l1 1-1-1z" fill="#60c3c4"/><path d="M60 30l1 1-1-1z" fill="#a1d5d7"/><path d="M38 31l1 1-1-1m21 0l1 1-1-1z" fill="#60c3c4"/><path d="M39 32l1 1-1-1z" fill="#a1d5d7"/><path d="M58 32l1 1-1-1z" fill="#2eb9bb"/><path d="M40 33l1 1-1-1z" fill="#a1d5d7"/><path d="M57 33l1 1-1-1z" fill="#60c3c4"/><path d="M42 34l1 1-1-1z" fill="#a1d5d7"/><path d="M55 34l1 1-1-1z" fill="#60c3c4"/><path d="M56 34l1 1-1-1m-11.333 1.333l.666.334-.666-.334z" fill="#a1d5d7"/><path d="M46 35l1 1-1-1z" fill="#60c3c4"/><path d="M47.667 35.333l.666.334-.666-.334M50 35l1 1-1-1z" fill="#2eb9bb"/><path d="M51.667 35.333l.666.334-.666-.334z" fill="#60c3c4"/><path d="M53.667 35.333l.666.334-.666-.334M18 36v1h9l-9-1m-2 1l1 1-1-1z" fill="#a1d5d7"/><path d="M17 37l1 1-1-1z" fill="#60c3c4"/><path d="M11 44c12.69-4.58 26.917 18.967 37 0-12.264 5.187-27.069-18.15-37 0z" fill="#0eb7b7"/><path d="M27 37l1 1-1-1z" fill="#2eb9bb"/><path d="M28.667 37.333l.666.334-.666-.334M14 38l1 1-1-1z" fill="#a1d5d7"/><path d="M15 38l1 1-1-1m-2 3v1l20 8v-1L20 39c6.02 0 20.076 6.695 19 11l5-3c-12.607-.255-16.913-13.384-31-6z" fill="#2eb9bb"/><path d="M30 38l1 1-1-1z" fill="#60c3c4"/><path d="M13 39l1 1-1-1m19 0l1 1-1-1m-20 1l1 1-1-1m21 0l1 1-1-1m-22 1l1 1-1-1m23 0l1 1-1-1z" fill="#a1d5d7"/><path d="M11 42l1 1-1-1z" fill="#2eb9bb"/><path d="M14 42l1 1-1-1z" fill="#60c3c4"/><path d="M15 42v1h3l-3-1z" fill="#a1d5d7"/><path d="M18 42l1 1-1-1z" fill="#60c3c4"/><path d="M19 42l1 1-1-1z" fill="#2eb9bb"/><path d="M35 42l1 1-1-1m13 0l-1 2h2l-1-2m-38 1l-1 2v1c2.158-.978 2.5-1.188 1-3z" fill="#a1d5d7"/><path d="M12 43l1 1-1-1z" fill="#60c3c4"/><path d="M20 43l1 1-1-1m16 0l1 1-1-1z" fill="#a1d5d7"/><path d="M10 44l1 1-1-1z" fill="#2eb9bb"/><path d="M21 44l1 1-1-1m16 0l1 1-1-1m9 0l1 1-1-1z" fill="#a1d5d7"/><path d="M23 45l1 1-1-1m15 0l1 1-1-1z" fill="#2eb9bb"/><path d="M39 45l1 1-1-1m5 0l1 1-1-1z" fill="#a1d5d7"/><path d="M45 45l1 1-1-1m2 0l1 1-1-1z" fill="#60c3c4"/><path d="M25 47l1 1-1-1z" fill="#2eb9bb"/><path d="M44 47l1 1-1-1z" fill="#60c3c4"/><path d="M46 47l1 1-1-1z" fill="#a1d5d7"/><path d="M26 48l1 1-1-1z" fill="#60c3c4"/><path d="M45 48l1 1-1-1m-18 1l1 1-1-1m17 0l1 1-1-1m-16 1l1 1-1-1z" fill="#a1d5d7"/><path d="M29 50l1 1-1-1m13 0l1 1-1-1z" fill="#60c3c4"/><path d="M31 51l1 1-1-1z" fill="#a1d5d7"/><path d="M32 51l1 1-1-1z" fill="#60c3c4"/><path d="M33 51l1 1-1-1m5 0l1 1-1-1z" fill="#2eb9bb"/><path d="M39 51l1 1-1-1z" fill="#60c3c4"/><path d="M40 51l1 1-1-1z" fill="#a1d5d7"/></symbol><symbol id="arya-blue" viewBox="0 0 600 600"><path fill="#64b5f6" d="M0 0h600v600H0z"/><path d="M0 300v300h600V0H0v300zm399.3-.4c54.3 90 98.6 163.8 98.4 164-.2.2-56.6.3-125.3.2l-125-.3 20.6-32 20.6-32 46.8-.3c27.3-.1 46.6-.6 46.4-1.1-.7-2-81.3-135.1-81.8-135.1-.3 0-17.6 28.2-38.4 62.7-20.9 34.6-48.3 79.8-61 100.5l-23.1 37.7-37.8.1c-20.8 0-37.7-.4-37.5-.8C103.1 461 299.6 136 300 136c.3 0 45 73.7 99.3 163.6z" fill="#212121"/></symbol><symbol id="arya-green" viewBox="0 0 600 600"><path fill="#81c784" d="M0 0h600v600H0z"/><path d="M0 300v300h600V0H0v300zm399.3-.4c54.3 90 98.6 163.8 98.4 164-.2.2-56.6.3-125.3.2l-125-.3 20.6-32 20.6-32 46.8-.3c27.3-.1 46.6-.6 46.4-1.1-.7-2-81.3-135.1-81.8-135.1-.3 0-17.6 28.2-38.4 62.7-20.9 34.6-48.3 79.8-61 100.5l-23.1 37.7-37.8.1c-20.8 0-37.7-.4-37.5-.8C103.1 461 299.6 136 300 136c.3 0 45 73.7 99.3 163.6z" fill="#212121"/></symbol><symbol id="arya-orange" viewBox="0 0 600 600"><path fill="#ffd54f" d="M0 0h600v600H0z"/><path d="M0 300v300h600V0H0v300zm399.3-.4c54.3 90 98.6 163.8 98.4 164-.2.2-56.6.3-125.3.2l-125-.3 20.6-32 20.6-32 46.8-.3c27.3-.1 46.6-.6 46.4-1.1-.7-2-81.3-135.1-81.8-135.1-.3 0-17.6 28.2-38.4 62.7-20.9 34.6-48.3 79.8-61 100.5l-23.1 37.7-37.8.1c-20.8 0-37.7-.4-37.5-.8C103.1 461 299.6 136 300 136c.3 0 45 73.7 99.3 163.6z" fill="#212121"/></symbol><symbol id="arya-purple" viewBox="0 0 600 600"><path fill="#ba68c8" d="M0 0h600v600H0z"/><path d="M0 300v300h600V0H0v300zm399.3-.4c54.3 90 98.6 163.8 98.4 164-.2.2-56.6.3-125.3.2l-125-.3 20.6-32 20.6-32 46.8-.3c27.3-.1 46.6-.6 46.4-1.1-.7-2-81.3-135.1-81.8-135.1-.3 0-17.6 28.2-38.4 62.7-20.9 34.6-48.3 79.8-61 100.5l-23.1 37.7-37.8.1c-20.8 0-37.7-.4-37.5-.8C103.1 461 299.6 136 300 136c.3 0 45 73.7 99.3 163.6z" fill="#212121"/></symbol><symbol id="bootstrap4-dark-blue" viewBox="0 0 2500 2500"><path d="M0 2177.65C0 2355.69 144.326 2500 322.354 2500H2177.64c178.05 0 322.36-144.33 322.36-322.35V322.363C2500 144.307 2355.67 0 2177.65 0H322.363C144.307 0 0 144.326 0 322.354V2177.65z" fill="#007BFF"/><path d="M1036.7 1105.84V751.807h311.63c29.69 0 58.3 2.47 85.86 7.422 27.56 4.941 51.94 13.769 73.14 26.494 21.2 12.724 38.16 30.39 50.88 52.998 12.72 22.617 19.08 51.592 19.08 86.914 0 63.603-19.08 109.545-57.24 137.805-38.16 28.27-86.92 42.4-146.28 42.4H1036.7zM703.857 493.164V2006.84h733.513c67.84 0 133.92-8.48 198.23-25.44 64.3-16.97 121.54-43.11 171.71-78.44s90.1-80.92 119.78-136.74c29.69-55.83 44.52-121.9 44.52-198.22 0-94.7-22.97-175.61-68.9-242.74-45.93-67.13-115.54-114.13-208.82-140.98 67.84-32.5 119.08-74.2 153.71-125.08 34.62-50.88 51.93-114.473 51.93-190.802 0-70.664-11.66-130.019-34.98-178.076-23.32-48.047-56.18-86.562-98.58-115.537-42.4-28.974-93.27-49.824-152.64-62.539-59.36-12.725-125.08-19.082-197.16-19.082H703.857zM1036.7 1748.19v-415.51h362.51c72.08 0 130.03 16.6 173.85 49.82 43.81 33.21 65.72 88.68 65.72 166.42 0 39.58-6.72 72.08-20.15 97.52-13.42 25.44-31.44 45.58-54.06 60.42-22.61 14.84-48.76 25.43-78.44 31.8-29.68 6.35-60.77 9.53-93.28 9.53H1036.7z" fill="#121212"/></symbol><symbol id="bootstrap4-dark-purple" viewBox="0 0 2500 2500"><path d="M0 2177.65C0 2355.69 144.326 2500 322.354 2500H2177.64c178.05 0 322.36-144.33 322.36-322.35V322.363C2500 144.307 2355.67 0 2177.65 0H322.363C144.307 0 0 144.326 0 322.354V2177.65z" fill="#883CAE"/><path d="M1036.7 1105.84V751.807h311.63c29.69 0 58.3 2.47 85.86 7.422 27.56 4.941 51.94 13.769 73.14 26.494 21.2 12.724 38.16 30.39 50.88 52.998 12.72 22.617 19.08 51.592 19.08 86.914 0 63.603-19.08 109.545-57.24 137.805-38.16 28.27-86.92 42.4-146.28 42.4H1036.7zM703.857 493.164V2006.84h733.513c67.84 0 133.92-8.48 198.23-25.44 64.3-16.97 121.54-43.11 171.71-78.44s90.1-80.92 119.78-136.74c29.69-55.83 44.52-121.9 44.52-198.22 0-94.7-22.97-175.61-68.9-242.74-45.93-67.14-115.54-114.13-208.82-140.98 67.84-32.5 119.08-74.2 153.71-125.08 34.62-50.88 51.93-114.473 51.93-190.802 0-70.664-11.66-130.019-34.98-178.076-23.32-48.047-56.18-86.562-98.58-115.537-42.4-28.974-93.27-49.824-152.64-62.539-59.36-12.725-125.08-19.082-197.16-19.082H703.857zM1036.7 1748.19v-415.51h362.51c72.08 0 130.03 16.6 173.85 49.82 43.81 33.21 65.72 88.68 65.72 166.42 0 39.58-6.72 72.08-20.15 97.52-13.42 25.44-31.44 45.58-54.06 60.42-22.61 14.84-48.76 25.43-78.44 31.8-29.68 6.35-60.77 9.53-93.28 9.53H1036.7z" fill="#121212"/></symbol><symbol id="bootstrap4-light-blue" viewBox="0 0 2500 2500"><path d="M0 2177.65C0 2355.69 144.326 2500 322.354 2500H2177.64c178.05 0 322.36-144.33 322.36-322.35V322.363C2500 144.307 2355.67 0 2177.65 0H322.363C144.307 0 0 144.326 0 322.354V2177.65z" fill="#007BFF"/><path d="M1036.7 1105.84V751.807h311.63c29.69 0 58.3 2.47 85.86 7.422 27.56 4.941 51.94 13.769 73.14 26.494 21.2 12.724 38.16 30.39 50.88 52.998 12.72 22.617 19.08 51.592 19.08 86.914 0 63.603-19.08 109.545-57.24 137.805-38.16 28.27-86.92 42.4-146.28 42.4H1036.7zM703.857 493.164V2006.84h733.513c67.84 0 133.92-8.48 198.23-25.44 64.3-16.97 121.54-43.11 171.71-78.44s90.1-80.92 119.78-136.74c29.69-55.83 44.52-121.9 44.52-198.22 0-94.7-22.97-175.61-68.9-242.74-45.93-67.13-115.54-114.13-208.82-140.98 67.84-32.5 119.08-74.2 153.71-125.08 34.62-50.88 51.93-114.473 51.93-190.802 0-70.664-11.66-130.019-34.98-178.076-23.32-48.047-56.18-86.562-98.58-115.537-42.4-28.974-93.27-49.824-152.64-62.539-59.36-12.725-125.08-19.082-197.16-19.082H703.857zM1036.7 1748.19v-415.51h362.51c72.08 0 130.03 16.6 173.85 49.82 43.81 33.21 65.72 88.68 65.72 166.42 0 39.58-6.72 72.08-20.15 97.52-13.42 25.44-31.44 45.58-54.06 60.42-22.61 14.84-48.76 25.43-78.44 31.8-29.68 6.35-60.77 9.53-93.28 9.53H1036.7z" fill="#fff"/></symbol><symbol id="bootstrap4-light-purple" viewBox="0 0 2500 2500"><path d="M0 2177.65C0 2355.69 144.326 2500 322.354 2500H2177.64c178.05 0 322.36-144.33 322.36-322.35V322.363C2500 144.307 2355.67 0 2177.65 0H322.363C144.307 0 0 144.326 0 322.354V2177.65z" fill="#883CAE"/><path d="M1036.7 1105.84V751.807h311.63c29.69 0 58.3 2.47 85.86 7.422 27.56 4.941 51.94 13.769 73.14 26.494 21.2 12.724 38.16 30.39 50.88 52.998 12.72 22.617 19.08 51.592 19.08 86.914 0 63.603-19.08 109.545-57.24 137.805-38.16 28.27-86.92 42.4-146.28 42.4H1036.7zM703.857 493.164V2006.84h733.513c67.84 0 133.92-8.48 198.23-25.44 64.3-16.97 121.54-43.11 171.71-78.44s90.1-80.92 119.78-136.74c29.69-55.83 44.52-121.9 44.52-198.22 0-94.7-22.97-175.61-68.9-242.74-45.93-67.14-115.54-114.13-208.82-140.98 67.84-32.5 119.08-74.2 153.71-125.08 34.62-50.88 51.93-114.473 51.93-190.802 0-70.664-11.66-130.019-34.98-178.076-23.32-48.047-56.18-86.562-98.58-115.537-42.4-28.974-93.27-49.824-152.64-62.539-59.36-12.725-125.08-19.082-197.16-19.082H703.857zM1036.7 1748.19v-415.51h362.51c72.08 0 130.03 16.6 173.85 49.82 43.81 33.21 65.72 88.68 65.72 166.42 0 39.58-6.72 72.08-20.15 97.52-13.42 25.44-31.44 45.58-54.06 60.42-22.61 14.84-48.76 25.43-78.44 31.8-29.68 6.35-60.77 9.53-93.28 9.53H1036.7z" fill="#fff"/></symbol><symbol id="md-dark-deeppurple" viewBox="0 0 1024 1024"><g fill="none" fill-rule="evenodd"><circle fill="#9D1BB2" cx="512" cy="512" r="512"/><path fill="#CE93D8" d="M154 155h715v716H154z"/><path fill="#121212" d="M154 154.5h714.5L512 870.5z"/></g></symbol><symbol id="md-dark-indigo" viewBox="0 0 1024 1024"><g fill="none" fill-rule="evenodd"><circle fill="#3D4DB7" cx="512" cy="512" r="512"/><path fill="#9FA8DA" d="M154 155h715v716H154z"/><path fill="#121212" d="M154 154.5h714.5L512 870.5z"/></g></symbol><symbol id="md-light-deeppurple" viewBox="0 0 1024 1024"><g fill="none" fill-rule="evenodd"><circle fill="#9D1BB2" cx="512" cy="512" r="512"/><path fill="#CE93D8" d="M154 155h715v716H154z"/><path fill="#fff" d="M154 154.5h714.5L512 870.5z"/></g></symbol><symbol id="md-light-indigo" viewBox="0 0 1024 1024"><g fill="none" fill-rule="evenodd"><circle fill="#3D4DB7" cx="512" cy="512" r="512"/><path fill="#9FA8DA" d="M154 155h715v716H154z"/><path fill="#FFF" d="M154 154.5h714.5L512 870.5z"/></g></symbol></svg>